<?xml version="1.0" standalone="no"?>
<!DOCTYPE svg PUBLIC "-//W3C//DTD SVG 20010904//EN"
 "http://www.w3.org/TR/2001/REC-SVG-20010904/DTD/svg10.dtd">
<svg version="1.0" xmlns="http://www.w3.org/2000/svg"
 width="1248.000000pt" height="1248.000000pt" viewBox="0 0 1248.000000 1248.000000"
 preserveAspectRatio="xMidYMid meet">
<metadata>
Created by potrace 1.14, written by Peter Selinger 2001-2017
</metadata>
<g transform="translate(0.000000,1248.000000) scale(0.100000,-0.100000)"
fill="#000000" stroke="none">
<path d="M3648 12475 c-2 -2 -23 -5 -48 -8 -25 -3 -70 -13 -100 -22 -30 -9
-62 -17 -70 -19 -8 -1 -28 -8 -45 -14 -28 -11 -49 -22 -147 -74 -21 -11 -38
-24 -38 -29 0 -5 -6 -9 -12 -9 -7 0 -28 -14 -47 -30 -18 -17 -38 -30 -43 -30
-5 0 -6 -4 -3 -10 3 -5 2 -10 -4 -10 -5 0 -47 -36 -93 -80 -46 -43 -128 -122
-183 -175 -55 -52 -103 -95 -108 -95 -4 0 -5 -4 -2 -10 3 -5 2 -10 -3 -10 -5
0 -53 -43 -107 -95 -55 -52 -100 -95 -101 -95 -1 0 -40 -37 -87 -82 -46 -46
-151 -146 -232 -223 -298 -282 -386 -367 -450 -436 -27 -29 -48 -54 -45 -56 3
-1 -3 -11 -12 -22 -9 -11 -25 -35 -34 -53 -9 -18 -20 -35 -23 -38 -13 -10 -61
-137 -83 -220 l-23 -85 0 -4830 c0 -2656 3 -4848 7 -4870 19 -116 102 -319
150 -367 10 -10 16 -18 13 -18 -16 0 116 -132 179 -180 50 -37 196 -123 196
-115 0 2 17 -3 37 -12 21 -8 47 -17 58 -19 11 -2 47 -11 80 -19 51 -12 271
-14 1525 -12 806 2 1476 5 1490 8 14 3 41 10 60 14 19 5 37 9 40 10 17 3 88
29 105 38 11 6 22 12 25 12 6 1 75 39 105 58 30 18 136 108 165 140 68 74 115
144 154 228 55 119 75 201 81 335 2 39 5 75 6 80 1 5 1 14 0 19 -3 14 -3 289
0 301 1 5 1 11 0 14 -6 16 -5 113 1 123 4 6 4 15 1 20 -9 14 -9 117 0 117 5 0
5 5 1 12 -7 10 -9 87 -4 113 1 6 2 12 1 15 -6 17 -5 120 2 120 4 0 3 8 -2 18
-6 10 -6 24 -1 32 5 8 6 18 4 22 -5 8 -8 331 -4 353 1 6 2 12 1 15 -6 16 -5
113 1 123 4 6 4 15 1 20 -9 14 -9 117 0 117 5 0 5 5 1 12 -7 10 -9 87 -4 113
1 6 2 12 1 15 -6 17 -5 120 2 120 4 0 3 8 -2 18 -6 10 -6 24 -1 32 5 8 7 17 4
21 -5 9 -9 158 -4 174 1 6 2 12 1 15 -7 18 -4 120 2 120 5 0 5 5 1 12 -7 10
-9 87 -4 113 1 6 2 12 1 15 -6 17 -5 120 2 120 4 0 3 8 -2 18 -6 10 -6 24 -1
32 5 8 6 18 4 22 -5 8 -8 252 -4 273 1 6 2 13 1 18 -3 11 -3 290 -1 302 1 6 2
15 1 20 -2 14 -3 369 0 381 1 5 1 11 0 14 -6 16 -5 113 1 123 4 6 4 15 1 20
-9 14 -9 117 0 117 5 0 5 5 1 12 -7 10 -9 87 -4 113 1 6 2 12 1 15 -6 17 -5
120 2 120 4 0 3 8 -2 18 -6 10 -6 24 -1 32 5 8 6 18 4 22 -5 8 -8 331 -4 353
1 6 2 15 1 20 -3 14 -3 208 -1 220 1 6 2 13 1 18 -3 11 -3 290 -1 302 1 6 2
12 1 15 -3 8 -4 194 -1 205 1 6 2 12 1 15 -7 18 -4 120 2 120 5 0 5 5 1 12 -7
10 -9 87 -4 113 1 6 2 12 1 15 -6 17 -5 120 2 120 4 0 3 8 -2 18 -6 10 -6 24
-1 32 5 8 7 17 4 21 -5 9 -9 158 -4 174 1 6 2 12 1 15 -7 18 -4 120 2 120 5 0
5 5 1 12 -7 10 -9 87 -4 113 1 6 2 12 1 15 -6 17 -5 120 2 120 4 0 3 8 -2 18
-6 10 -6 24 -1 32 5 8 7 17 4 21 -5 9 -9 158 -4 174 1 6 2 12 1 15 -7 18 -4
120 2 120 5 0 5 5 1 12 -7 10 -9 87 -4 113 1 6 2 12 1 15 -6 17 -5 120 2 120
4 0 3 8 -2 18 -6 10 -6 24 -1 32 5 8 7 17 4 21 -5 9 -9 158 -4 174 1 6 2 12 1
15 -7 18 -4 120 2 120 5 0 5 5 1 12 -7 10 -9 87 -4 113 1 6 2 12 1 15 -6 17
-5 120 2 120 4 0 3 8 -2 18 -6 10 -6 24 -1 32 5 8 6 18 4 22 -5 8 -8 252 -4
273 1 6 2 13 1 18 -3 11 -3 290 -1 302 1 6 2 15 1 20 -2 14 -3 369 0 381 1 5
1 11 0 14 -6 16 -5 113 1 123 4 6 4 15 1 20 -9 14 -9 117 0 117 5 0 5 5 1 12
-7 10 -9 87 -4 113 1 6 2 12 1 15 -6 17 -5 120 2 120 4 0 3 8 -2 18 -5 10 -6
24 -1 32 4 7 6 18 4 24 -2 6 -6 70 -8 141 -4 133 -21 225 -57 318 -27 69 -71
159 -86 175 -7 7 -13 17 -13 22 0 5 -6 15 -12 22 -7 7 -25 29 -39 48 -34 45
-61 72 -254 255 -86 83 -183 175 -215 205 -32 30 -124 118 -205 195 -81 77
-171 163 -200 190 -28 28 -124 118 -211 202 -87 83 -190 181 -229 218 -99 94
-198 168 -285 211 -63 31 -144 64 -153 63 -4 -1 -62 13 -77 18 -30 11 -283 26
-292 18z"/>
<path d="M8677 8924 c-1 -1 -22 -5 -47 -8 -25 -4 -62 -10 -82 -15 -21 -5 -38
-7 -38 -4 0 3 -6 1 -12 -5 -7 -5 -27 -13 -45 -17 -18 -3 -50 -15 -72 -26 -22
-10 -45 -19 -51 -19 -5 0 -10 -4 -10 -9 0 -5 -12 -12 -27 -16 -15 -3 -30 -10
-33 -13 -7 -10 -68 -52 -75 -52 -6 0 -52 -39 -111 -95 -66 -61 -339 -322 -411
-392 -41 -40 -76 -73 -78 -73 -1 0 -41 -37 -87 -82 -78 -76 -258 -248 -511
-488 -116 -110 -245 -239 -267 -266 -30 -37 -98 -150 -115 -189 -10 -22 -23
-53 -30 -70 -16 -37 -41 -134 -51 -200 -9 -60 -11 -6051 -2 -6115 9 -64 28
-142 39 -162 5 -10 9 -22 9 -27 0 -12 62 -144 71 -151 3 -3 12 -16 18 -28 34
-64 171 -201 256 -255 96 -61 209 -109 315 -133 53 -12 2954 -15 3015 -3 28 5
59 11 70 14 11 2 21 4 23 6 1 1 5 2 10 3 171 38 390 198 496 364 42 64 95 171
101 202 2 8 4 15 5 15 1 0 3 7 5 15 2 8 10 44 19 80 14 58 16 378 16 3100 0
2003 -3 3055 -10 3090 -16 87 -18 93 -30 125 -6 17 -11 30 -10 30 8 0 -85 197
-105 223 -5 7 -18 22 -27 33 -10 10 -18 22 -18 27 0 11 -88 99 -269 272 -90
85 -185 175 -211 200 -26 25 -68 64 -94 88 -25 23 -46 48 -46 54 0 6 -2 9 -6
6 -3 -3 -29 17 -58 46 -46 44 -218 209 -441 421 -209 199 -296 279 -345 316
-55 41 -220 126 -259 134 -12 2 -25 6 -29 9 -5 3 -19 7 -33 10 -101 20 -125
24 -131 20 -5 -3 -8 -2 -8 3 0 6 -176 13 -183 7z"/>
</g>
</svg>
