<svg id="Layer_1" height="512" viewBox="0 0 512 512" width="512" xmlns="http://www.w3.org/2000/svg"><path d="m305.583 273.121c3.658 0 6.851-2.481 7.753-6.027l14.15-55.604 63.355-99.045c1.681-2.628 1.681-5.993 0-8.622l-64.05-100.134c-1.47-2.298-4.011-3.689-6.739-3.689h-128.104c-2.729 0-5.269 1.391-6.739 3.689l-64.051 100.133c-1.681 2.628-1.681 5.994 0 8.622l63.355 99.045 14.15 55.604c.902 3.545 4.095 6.027 7.753 6.027h22.641v76.289c0 4.418 3.582 8 8 8h18.941c27.765 0 50.354 22.588 50.354 50.353s-22.588 50.353-50.354 50.353c-27.764 0-50.352-22.588-50.352-50.353 0-20.005-13.554-30.472-26.942-30.472s-26.942 10.467-26.942 30.472c0 57.477 46.76 104.237 104.236 104.237 57.477 0 104.238-46.761 104.238-104.237 0-47.32-32.127-88.662-77.291-100.713v-33.928zm-109.255-257.121h119.345l58.934 92.134-58.934 92.133h-119.345l-58.934-92.133zm5.911 200.267h107.521l-10.397 40.854h-86.728zm71.14 104.974c41.058 8.201 70.858 44.588 70.858 86.522 0 48.654-39.583 88.237-88.238 88.237-48.654 0-88.236-39.583-88.236-88.237 0-9.997 5.496-14.472 10.942-14.472 2.745 0 5.308 1.109 7.218 3.123 2.437 2.57 3.725 6.494 3.725 11.35 0 36.587 29.765 66.353 66.352 66.353s66.354-29.766 66.354-66.353-29.766-66.353-66.354-66.353h-10.941v-68.289h21.889v40.274c-.002 3.813 2.691 7.097 6.431 7.845zm-17.38-172.014c22.66 0 41.096-18.434 41.096-41.093s-18.436-41.094-41.096-41.094c-22.659 0-41.094 18.435-41.094 41.094 0 22.658 18.435 41.093 41.094 41.093zm0-66.187c13.838 0 25.096 11.257 25.096 25.094 0 13.836-11.258 25.093-25.096 25.093-13.837 0-25.094-11.256-25.094-25.093s11.257-25.094 25.094-25.094z"/></svg>