<?xml version="1.0" encoding="UTF-8"?>
<svg xmlns="http://www.w3.org/2000/svg" xmlns:xlink="http://www.w3.org/1999/xlink" version="1.1" id="Capa_1" x="0px" y="0px" viewBox="0 0 512 512" style="enable-background:new 0 0 512 512;" xml:space="preserve" width="512" height="512">
<g>
	<g>
		<g>
			<g>
				<path style="fill:none;stroke:#000000;stroke-width:20;stroke-linecap:round;stroke-linejoin:round;stroke-miterlimit:10;" d="&#10;&#9;&#9;&#9;&#9;&#9;M502,89.776v331.626c0,19.906-16.221,36.043-36.232,36.043H46.232c-20.01,0-36.232-16.137-36.232-36.043V89.776"/>
				
					<line style="fill:none;stroke:#000000;stroke-width:20;stroke-linecap:round;stroke-linejoin:round;stroke-miterlimit:10;" x1="428.759" y1="89.776" x2="83.241" y2="89.776"/>
			</g>
		</g>
		<g>
			<path style="fill:none;stroke:#000000;stroke-width:20;stroke-linecap:round;stroke-linejoin:round;stroke-miterlimit:10;" d="&#10;&#9;&#9;&#9;&#9;M81.669,90.176c0-19.592-16.125-35.621-35.834-35.621h0C26.125,54.555,10,70.585,10,90.176v332.76&#10;&#9;&#9;&#9;&#9;c0-19.592,16.125-34.085,35.834-34.085h0c13.412,0,25.164,7.423,31.305,18.34h4.529V90.176z"/>
		</g>
		<g>
			<path style="fill:none;stroke:#000000;stroke-width:20;stroke-linecap:round;stroke-linejoin:round;stroke-miterlimit:10;" d="&#10;&#9;&#9;&#9;&#9;M466.166,388.851L466.166,388.851c19.709,0,35.834,13.807,35.834,33.399V90.176c0-19.592-16.125-35.621-35.834-35.621h0&#10;&#9;&#9;&#9;&#9;c-19.709,0-35.834,16.03-35.834,35.621v317.015h4.529C441.002,396.274,452.754,388.851,466.166,388.851z"/>
		</g>
	</g>
	<g>
		
			<polygon style="fill:none;stroke:#000000;stroke-width:20;stroke-linecap:round;stroke-linejoin:round;stroke-miterlimit:10;" points="&#10;&#9;&#9;&#9;256,146.108 163.903,219.171 163.903,345.892 230.745,345.892 230.745,275.781 281.255,275.781 281.255,345.892 348.097,345.892 &#10;&#9;&#9;&#9;348.097,219.171 &#9;&#9;"/>
		<g>
			
				<polyline style="fill:none;stroke:#000000;stroke-width:20;stroke-linecap:round;stroke-linejoin:round;stroke-miterlimit:10;" points="&#10;&#9;&#9;&#9;&#9;153.023,227.803 256,146.108 358.977,227.803 &#9;&#9;&#9;"/>
			
				<line style="fill:none;stroke:#000000;stroke-width:20;stroke-linecap:round;stroke-linejoin:round;stroke-miterlimit:10;" x1="348.097" y1="217.638" x2="348.097" y2="184.511"/>
		</g>
	</g>
	<g>
		
			<line style="fill:none;stroke:#000000;stroke-width:20;stroke-linecap:round;stroke-linejoin:round;stroke-miterlimit:10;" x1="135.043" y1="390.76" x2="376.957" y2="390.76"/>
		<g>
			
				<line style="fill:none;stroke:#000000;stroke-width:20;stroke-linecap:round;stroke-linejoin:round;stroke-miterlimit:10;" x1="378" y1="373.908" x2="378" y2="407.611"/>
			
				<line style="fill:none;stroke:#000000;stroke-width:20;stroke-linecap:round;stroke-linejoin:round;stroke-miterlimit:10;" x1="134" y1="373.908" x2="134" y2="407.611"/>
		</g>
	</g>
</g>















</svg>
