<svg id="Capa_1" enable-background="new 0 0 609.62 609.62" height="512" viewBox="0 0 609.62 609.62" width="512" xmlns="http://www.w3.org/2000/svg"><g><g id="Page-1_21_"><g id="_x30_22---Lowering-House"><path id="Shape_52_" d="m30.482 223.527h101.603c16.834 0 30.481-13.647 30.481-30.481v-30.481h20.321v365.772h-71.122c-28.043.034-50.768 22.759-50.802 50.802v10.16c0 11.223 9.098 20.321 20.321 20.321h284.489c11.223 0 20.321-9.098 20.321-20.321v-10.16c-.034-28.043-22.759-50.768-50.802-50.802h-71.122v-193.046h62.039c5.697-.008 11.239-1.858 15.799-5.273l53.85-40.408c6.625-4.974 10.533-12.768 10.557-21.052v-105.993h60.962v100.242c-.953.436-1.87.946-2.743 1.524l-111.632 90.264c-4.219 3.398-6.9 8.346-7.445 13.736-.544 5.39 1.094 10.774 4.549 14.947l13.026 15.728c3.239 3.875 7.801 6.409 12.802 7.112v91.738c0 16.834 13.647 30.481 30.481 30.481h142.245c16.834 0 30.481-13.647 30.481-30.481v-91.748c5.003-.697 9.567-3.233 12.802-7.112l13.026-15.728c3.453-4.173 5.092-9.555 4.549-14.944-.542-5.389-3.22-10.337-7.435-13.738l-22.942-18.532v-51.564c0-11.223-9.098-20.321-20.321-20.321h-20.321c-11.223 0-20.321 9.098-20.321 20.321v2.276l-27.738-22.434c-.874-.575-1.791-1.081-2.743-1.514v-100.253h101.603c7.493-.001 14.377-4.126 17.912-10.732s3.149-14.622-1.005-20.857l-27.067-40.64c-3.776-5.666-10.138-9.065-16.947-9.053h-83.315l-215.938-58.93c-3.641-13.163-15.594-22.297-29.251-22.353h-20.321c-13.937.045-26.069 9.537-29.465 23.054l-155.951 58.483c-15.755 1.283-27.903 14.419-27.951 30.227v81.283c0 16.834 13.647 30.48 30.481 30.48zm426.734 284.49v-50.802c0-5.611 4.549-10.16 10.16-10.16h20.321c5.611 0 10.16 4.549 10.16 10.16v50.802zm91.443 0h-30.481v-50.802c0-16.834-13.647-30.481-30.481-30.481h-20.321c-16.834 0-30.481 13.647-30.481 30.481v50.802h-30.481c-5.611 0-10.16-4.549-10.16-10.16v-99.571l81.283-64.467 81.283 64.467v99.571c0 5.611-4.549 10.16-10.161 10.16zm-10.16-223.528h20.321v35.134l-20.321-16.429zm50.802 85.835-13.005 15.718c-.069.042-.155.042-.224 0l-.152-.102-92.063-73.002c-3.7-2.939-8.939-2.939-12.639 0l-92.459 73.154-12.985-15.688 111.886-90.275zm-502.785-289.041 96.371-36.14v36.14zm177.654-37.502 137.49 37.502h-137.49zm213.367 57.822h56.756l-36.435 36.435-36.435-36.435zm-136.291 40.642h-72.87l36.435-36.435zm-11.908-40.642h72.87l-36.435 36.435zm60.962 40.642 40.641-40.641h1.748l40.641 40.641zm-110.016-40.642-36.435 36.435-36.435-36.435zm-117.717 0h16.114l40.641 40.641h-56.756v-40.641zm203.206 477.536v10.16h-284.489v-10.16c0-16.834 13.647-30.481 30.481-30.481h223.527c16.834 0 30.481 13.647 30.481 30.481zm-162.565-50.801v-365.773h40.641v365.772h-40.641zm126.598-214.566c-1.039.776-2.3 1.197-3.597 1.199h-62.039v-40.641h118.236zm56.288-59.764h-121.924v-91.443h121.924zm203.207-111.763h-66.957l40.143-40.143zm-386.093-111.764c0-5.611 4.549-10.16 10.16-10.16h20.321c5.611 0 10.16 4.549 10.16 10.16v50.802h-40.641zm-182.886 81.283c0-5.611 4.549-10.16 10.16-10.16h20.321v30.481c0 5.611 4.549 10.16 10.16 10.16s10.16-4.549 10.16-10.16v-30.481h20.321v30.481c0 5.611 4.549 10.16 10.16 10.16s10.16-4.549 10.16-10.16v-30.481h30.481v91.443c0 5.611-4.549 10.16-10.16 10.16h-101.603c-5.611 0-10.16-4.549-10.16-10.16z"/><g clip-rule="evenodd" fill-rule="evenodd"><path id="Path_38_" d="m311.995 185.863c-3.968-3.966-10.399-3.966-14.367 0l-10.16 10.16c-2.641 2.551-3.701 6.329-2.771 9.881s3.704 6.327 7.256 7.256c3.552.93 7.33-.129 9.881-2.771l10.16-10.16c3.967-3.967 3.967-10.398.001-14.366z"/><path id="Path_37_" d="m348.43 185.863-40.641 40.641c-2.641 2.551-3.701 6.329-2.771 9.881s3.704 6.327 7.256 7.256c3.552.93 7.33-.129 9.881-2.771l40.641-40.641c3.85-3.987 3.795-10.324-.124-14.243-3.919-3.918-10.256-3.973-14.242-.123z"/></g></g></g></g></svg>