<?xml version="1.0" encoding="UTF-8"?><svg id="Layer_2" xmlns="http://www.w3.org/2000/svg" viewBox="0 0 268.9 39.23"><defs><style>.cls-1{fill:#b5d670;}.cls-1,.cls-2{stroke-width:0px;}.cls-2{fill:#fff;}</style></defs><g id="Layer_1-2"><path class="cls-2" d="M44.91,38.77V15.99h2.35v22.78h-2.35ZM46.67,27.81v-1.55h5.79c1.42,0,2.48-.39,3.16-1.16.68-.77,1.02-1.75,1.02-2.92s-.34-2.21-1.02-2.97c-.68-.76-1.73-1.14-3.16-1.14h-5.79v-2.07h5.39c2.33,0,4.07.53,5.23,1.58,1.16,1.05,1.73,2.51,1.73,4.36v.37c0,1.3-.29,2.36-.87,3.17-.58.82-1.39,1.41-2.43,1.78-1.04.37-2.26.56-3.67.56h-5.39ZM46.67,38.77v-2.07h6.62c1.34,0,2.39-.39,3.14-1.16.75-.77,1.13-1.8,1.13-3.08s-.37-2.27-1.11-3.05c-.74-.77-1.8-1.16-3.16-1.16h-6.62v-1.55h6.28c1.36,0,2.57.19,3.62.57s1.88.99,2.48,1.81c.6.83.9,1.91.9,3.25v.37c0,1.22-.26,2.29-.77,3.2-.52.92-1.29,1.62-2.32,2.12-1.03.5-2.33.74-3.9.74h-6.28Z"/><path class="cls-2" d="M72.95,39.2c-2.06,0-3.78-.39-5.14-1.18s-2.38-1.88-3.06-3.3c-.68-1.41-1.02-3.04-1.02-4.88v-13.77h2.35v14.05c0,1.38.25,2.59.76,3.62.51,1.03,1.27,1.84,2.29,2.42,1.02.58,2.29.87,3.82.87s2.77-.28,3.78-.85c1.01-.57,1.77-1.37,2.29-2.41.52-1.04.77-2.25.77-3.64v-14.05h2.35v13.77c0,1.84-.34,3.46-1.02,4.88-.68,1.41-1.7,2.51-3.05,3.3-1.35.78-3.06,1.18-5.12,1.18Z"/><path class="cls-2" d="M91.61,29.82l-7.27-13.74h2.48l6.41,12.29-.99-.4h3.44l-1.02.4,6.07-12.29h2.32l-6.84,13.74h-4.58ZM92.73,38.68v-9.38h2.32v9.38h-2.32Z"/><path class="cls-1" d="M104.77,38.68v-22.59h8.33l8.51,18.48h1.05l-.62.56v-19.04h4.77v22.59h-8.39l-8.51-18.48h-1.05l.62-.56v19.04h-4.7Z"/><path class="cls-1" d="M130.33,38.68v-22.59h4.95v22.59h-4.95ZM134.66,20.29v-4.21h9.66v4.21h-9.66ZM134.66,29.3v-4.21h9.16v4.21h-9.16ZM134.66,38.68v-4.21h9.87v4.21h-9.87Z"/><path class="cls-1" d="M150.85,38.68l-5.57-22.59h5.23l4.36,19.19-1.08-.71h2.82l-1.21.71,3.37-18.35h4.21l-4.43,21.76h-7.71ZM164.32,38.68l-4.77-21.76h4.43l3.9,18.35-1.18-.71h2.69l-1.02.71,3.81-19.19h4.95l-4.95,22.59h-7.86Z"/><path class="cls-2" d="M179.26,38.68v-22.59h3.71v22.59h-3.71ZM182.27,29.05v-3.31h12.78v3.31h-12.78ZM194.34,38.68v-22.59h3.71v22.59h-3.71Z"/><path class="cls-2" d="M212.94,39.23c-2.04,0-3.8-.36-5.28-1.07-1.48-.71-2.7-1.66-3.67-2.83-.97-1.18-1.69-2.44-2.15-3.79-.46-1.35-.7-2.65-.7-3.88v-.68c0-1.36.24-2.72.73-4.09.48-1.36,1.22-2.6,2.2-3.73s2.21-2.03,3.68-2.71c1.48-.68,3.2-1.02,5.18-1.02s3.7.34,5.17,1.02c1.46.68,2.69,1.58,3.68,2.71.99,1.12,1.73,2.37,2.21,3.73.48,1.36.73,2.72.73,4.09v.68c0,1.24-.24,2.53-.71,3.88-.48,1.35-1.19,2.62-2.15,3.79-.96,1.18-2.18,2.12-3.67,2.83-1.49.71-3.24,1.07-5.26,1.07ZM212.94,35.8c1.24,0,2.35-.23,3.34-.68.99-.45,1.84-1.07,2.54-1.86.7-.78,1.23-1.68,1.59-2.69.36-1.01.54-2.08.54-3.22,0-1.2-.19-2.31-.56-3.33-.37-1.02-.9-1.92-1.59-2.69-.69-.77-1.53-1.38-2.52-1.81-.99-.43-2.1-.65-3.34-.65s-2.35.22-3.34.65c-.99.43-1.84,1.04-2.54,1.81-.7.77-1.23,1.67-1.59,2.69-.36,1.02-.54,2.13-.54,3.33,0,1.13.18,2.21.54,3.22.36,1.01.89,1.91,1.59,2.69.7.79,1.55,1.4,2.54,1.86s2.1.68,3.34.68Z"/><path class="cls-2" d="M227.8,38.68v-22.59h5.01l6.19,14.27h.53l6.13-14.27h5.08v22.59h-3.68v-19.28l.37.06-6.25,14.58h-4.09l-6.31-14.58.43-.06v19.28h-3.4Z"/><path class="cls-2" d="M255.25,38.68v-22.59h3.68v22.59h-3.68ZM258.31,19.3v-3.22h10.31v3.22h-10.31ZM258.31,28.8v-3.22h9.72v3.22h-9.72ZM258.31,38.68v-3.22h10.59v3.22h-10.59Z"/><path class="cls-2" d="M11.28,39.23H2.79c-1.54,0-2.79-1.25-2.79-2.79V6.85c0-.83.34-1.62.94-2.19L4.95.84c1.17-1.11,3.01-1.11,4.18,0l4.01,3.82c.6.57.94,1.36.94,2.19v29.59c0,1.54-1.25,2.79-2.79,2.79Z"/><path class="cls-1" d="M27.04,39.23h-8.49c-1.54,0-2.79-1.25-2.79-2.79v-18.42c0-.83.34-1.62.94-2.19l4.01-3.82c1.17-1.11,3.01-1.11,4.18,0l4.01,3.82c.6.57.94,1.36.94,2.19v18.42c0,1.54-1.25,2.79-2.79,2.79Z"/></g></svg>